{"title":"Inside Out 2015 NEW SOURCE READNFO TS XViD CHiVE - BULL","uid":12163393,"size":1518376960,"categoryP":"video","categoryS":"movies","magnet":"?xt=urn:btih:e8949683a3b97cbada7726e00c1ca76432441b80&amp;dn=Inside+Out+2015+NEW+SOURCE+READNFO+TS+XViD+CHiVE+-+BULL&amp;tr=udp%3A%2F%2Ftracker.openbittorrent.com%3A80&amp;tr=udp%3A%2F%2Fopen.demonii.com%3A1337&amp;tr=udp%3A%2F%2Ftracker.coppersurfer.tk%3A6969&amp;tr=udp%3A%2F%2Fexodus.desync.com%3A6969","seeders":17,"leechers":3,"uploader":"makintos13","files":2,"time":1437972537,"description":" &lt;a href=&quot;http://imgmak.com/image/Ec&quot; rel=&quot;nofollow&quot; target=&quot;_NEW&quot;&gt;http://imgmak.com/image/Ec&lt;/a&gt;\n &lt;a href=&quot;\nhttp://imgmak.com/image/En&quot; rel=&quot;nofollow&quot; target=&quot;_NEW&quot;&gt;\nhttp://imgmak.com/image/En&lt;/a&gt;\n &lt;a href=&quot;\nhttp://imgmak.com/image/Er&quot; rel=&quot;nofollow&quot; target=&quot;_NEW&quot;&gt;\nhttp://imgmak.com/image/Er&lt;/a&gt;\n\n;;;\n\n\nFormat/Info : Audio Video Interleave\nFile size : 1.40 GiB\nDuration : 1h 28mn\nOverall bit rate : 2 256 Kbps\nWriting application : VirtualDubMod 1.5.10.2 (build 2540/release)\nWriting library : VirtualDubMod build 2540/release\n\nVideo\nID : 0\nFormat : MPEG-4 Visual\nFormat profile : Advanced Simple@L5\nFormat settings, BVOP : 2\nFormat settings, QPel : No\nFormat settings, GMC : No warppoints\nFormat settings, Matrix : Default (H.263)\nMuxing mode : Packed bitstream\nCodec ID : XVID\nCodec ID/Hint : XviD\nDuration : 1h 28mn\nBit rate : 2 117 Kbps\nWidth : 720 pixels\nHeight : 392 pixels\nDisplay aspect ratio : 1.85:1\nFrame rate : 29.970 fps\nColor space : YUV\nChroma subsampling : 4:2:0\nBit depth : 8 bits\nScan type : Progressive\nCompression mode : Lossy\nBits/(Pixel*Frame) : 0.250\nStream size : 1.31 GiB (94%)\nWriting library : XviD 64\n\nAudio\nID : 1\nFormat : MPEG Audio\nFormat version : Version 1\nFormat profile : Layer 3\nMode : Joint stereo\nMode extension : MS Stereo\nCodec ID : 55\nCodec ID/Hint : MP3\nDuration : 1h 28mn\nBit rate mode : Constant\nBit rate : 128 Kbps\nChannel(s) : 2 channels\nSampling rate : 44.1 KHz\nCompression mode : Lossy\nStream size : 81.2 MiB (6%)\nAlignment : Aligned on interleaves\nInterleave, duration : 33 ms (1.00 video frame)\nInterleave, preload duration : 522 ms\n\nwww.imdb.com/title/tt2096673/\n\n\n\nRiley (Kaitlyn Dias) is a happy, hockey-loving 11-year-old Midwestern girl, but her world turns upside-down when she and her parents move to San Francisco. Riley's emotions -- led by Joy (Amy Poehler) -- try to guide her through this difficult, life-changing event. However, the stress of the move brings Sadness (Phyllis Smith) to the forefront. When Joy and Sadness are inadvertently swept into the far reaches of Riley's mind, the only emotions left in Headquarters are Anger, Fear and Disgust.\n\n\n\n\n\nAnyway what i did was take your audio and synced it to our video but ive had to use CAM audio for the part where your video was missing, as no line is available \n\n\nToned the brightness down,plus the saturation and well well we have a true complete","torrent":{"xt":"urn:btih:e8949683a3b97cbada7726e00c1ca76432441b80","amp;dn":"Inside+Out+2015+NEW+SOURCE+READNFO+TS+XViD+CHiVE+-+BULL","amp;tr":["udp%3A%2F%2Ftracker.openbittorrent.com%3A80","udp%3A%2F%2Fopen.demonii.com%3A1337","udp%3A%2F%2Ftracker.coppersurfer.tk%3A6969","udp%3A%2F%2Fexodus.desync.com%3A6969"],"infoHash":"e8949683a3b97cbada7726e00c1ca76432441b80","infoHashBuffer":{"type":"Buffer","data":[232,148,150,131,163,185,124,186,218,119,38,224,12,28,167,100,50,68,27,128]},"announce":[],"urlList":[]}}